<svg xmlns="http://www.w3.org/2000/svg" xml:space="preserve" id="ecommerce_1_" x="0" y="0" version="1.1" viewBox="0 0 115 115"><style>.st0{fill:#ffeead}.st1{fill:#c9b77d}.st2{fill:#99734a}.st3{fill:#ff6f69}.st4{fill:#96ceb4}.st7{fill:#71a58a}.st11{fill:#e05858}.st17{fill:#7c5c3c}</style><g id="shopping_cart_1_"><path d="M31.058 101.123c-1.122-1.648.06-3.154.46-3.583l7.021-7.021-2.656-2.656-7.041 7.041c-1.861 1.92-3.392 6.013.02 9.424l.55.55h67.48v-3.756H31.058z" class="st7"/><path d="M100.28 102.899a8.635 8.635 0 0 0-15.494 0c-.586 1.186.284 2.58 1.607 2.58h12.281c1.322 0 2.192-1.394 1.606-2.58" class="st11"/><circle cx="92.532" cy="106.731" r="6.051" class="st17"/><circle cx="92.532" cy="106.731" r="3.023" class="st1"/><path d="M53.959 102.899a8.635 8.635 0 0 0-15.494 0c-.586 1.186.284 2.58 1.607 2.58h12.281c1.322 0 2.192-1.394 1.606-2.58" class="st11"/><circle cx="46.211" cy="106.731" r="6.051" class="st17"/><circle cx="46.211" cy="106.731" r="3.023" class="st1"/><path d="M24.995 101.266c-1.321-1.941.071-3.715.542-4.221l8.27-8.271-3.128-3.128-8.294 8.294c-2.192 2.261-3.995 7.083.024 11.102l.648.648h79.49v-4.425H24.995z" class="st4"/><path d="M110.011 103.357a10.17 10.17 0 0 0-9.126-5.676 10.17 10.17 0 0 0-9.126 5.676c-.691 1.398.334 3.04 1.893 3.04h14.466c1.558 0 2.583-1.642 1.893-3.04" class="st3"/><circle cx="100.884" cy="107.872" r="7.128" class="st2"/><circle cx="100.884" cy="107.872" r="3.561" class="st0"/><path d="M48.497 103.357a10.17 10.17 0 0 0-9.126-5.676 10.17 10.17 0 0 0-9.126 5.676c-.691 1.398.334 3.04 1.893 3.04h14.466c1.559 0 2.584-1.642 1.893-3.04" class="st3"/><circle cx="39.371" cy="107.872" r="7.128" class="st2"/><circle cx="39.371" cy="107.872" r="3.561" class="st0"/><path d="M26.717 37.924h-14.85a2.58 2.58 0 0 0-2.574 2.574 2.58 2.58 0 0 0 2.574 2.574h14.85a2.58 2.58 0 0 0 2.575-2.574 2.583 2.583 0 0 0-2.575-2.574" class="st4"/><path d="m100.918 44.564-1.353 11.645H86.848l.45-12.054h-3.772l-.45 12.054H71.644V44.254h-3.772v11.955H54.605L53.47 44.461h-3.772l1.135 11.748H35.501l-3.015-11.606h-3.772L39.782 87.21h3.772l-3.519-13.545h12.483l1.308 13.545h3.772L56.29 73.665h11.581V87.21h3.772V73.665h10.779l-.504 13.545h3.772l.506-13.545h11.341L95.963 87.21h3.772l4.956-42.647h-3.773zM39.09 70.026l-2.644-10.178h14.738l.983 10.178zm28.782 0H55.939l-.983-10.178h12.916zm14.687 0H71.644V59.848h11.295zm15.401 0H86.331l.38-10.178h12.431z" class="st7"/><path d="m105.313 42.366-1.532 12.857H89.384l.51-13.308h-4.27l-.51 13.308h-12.94V42.024h-4.27v13.199H52.885L51.6 42.253h-4.27l1.285 12.971H31.258L27.846 42.41h-4.27l12.529 47.04h4.27l-3.983-14.954h14.131l1.481 14.954h4.27l-1.481-14.954h13.11V89.45h4.27V74.496h12.202l-.572 14.954h4.27l.573-14.954h12.839L99.703 89.45h4.27l5.61-47.084zM35.322 70.478l-2.993-11.237h16.684l1.113 11.237zm32.582 0H54.395l-1.113-11.237h14.621zm16.626 0H72.174V59.241H84.96zm17.434 0H88.8l.43-11.237h14.072z" class="st4"/><path d="M27.846 42.41h-4.271l2.752 10.331h4.27zM51.6 42.253h-4.27l1.039 10.488h4.27zM105.313 42.366l-1.236 10.375h3.278c.353 0 .688-.065 1.011-.156l1.218-10.219zM67.904 42.024h4.27v10.717h-4.27zM85.624 41.915l-.415 10.826h4.27l.415-10.826z" class="st7"/><path d="M102.993 82.822H34.055a3.97 3.97 0 0 0-3.969 3.969v1.813a3.97 3.97 0 0 0 3.969 3.969h68.938a3.97 3.97 0 0 0 3.969-3.969v-1.813a3.97 3.97 0 0 0-3.969-3.969M107.354 37.539H24.09a3.73 3.73 0 0 0-3.729 3.729v4.784a3.73 3.73 0 0 0 3.729 3.729h83.265a3.73 3.73 0 0 0 3.729-3.729v-4.784a3.73 3.73 0 0 0-3.73-3.729" class="st3"/><circle cx="9.292" cy="39.23" r="5.376" class="st3"/><path d="M74.68 8.591h-4.352V2.488A2.49 2.49 0 0 0 67.839 0h-5.121a2.49 2.49 0 0 0-2.488 2.488v6.103h-4.352c-1.875 0-3.077 1.996-2.198 3.653l9.401 17.737c.935 1.764 3.462 1.764 4.397 0l9.401-17.737c.877-1.657-.324-3.653-2.199-3.653" class="st3"/></g></svg>